<?xml version="1.0" encoding="UTF-8"?>
<svg id="Laag_1" data-name="Laag 1" xmlns="http://www.w3.org/2000/svg" viewBox="0 0 1093.86 755.92">
  <defs>
    <style>
      .cls-1 {
        fill: #2f2e41;
      }

      .cls-2 {
        fill: #fff;
      }

      .cls-3 {
        fill: #3f3d56;
      }

      .cls-4 {
        fill: #46becd;
      }

      .cls-5 {
        fill: #d0cde1;
      }

      .cls-6 {
        fill: #ffb9b9;
      }

      .cls-7 {
        isolation: isolate;
        opacity: .15;
      }

      .cls-8 {
        fill: #cfcce0;
      }

      .cls-9 {
        fill: #f2f2f2;
      }
    </style>
  </defs>
  <path class="cls-2" d="M660.66,486.72c-22.49,0-42.24,23.69-53.25,59.16-.75,2.41-1.46,4.87-2.12,7.38-4.83,18.77-7.22,38.08-7.13,57.46,0,68.37,28.04,124,62.5,124s62.5-55.63,62.5-124-28.04-124-62.5-124Zm15.5,196.85c-12.34,0-22-32-22-72.85s9.66-72.85,22-72.85,22,32,22,72.85-9.66,72.85-22,72.85Z"/>
  <path class="cls-2" d="M513.66,465.72c-22.49,0-42.24,23.69-53.25,59.16-.75,2.41-1.46,4.87-2.12,7.38-4.83,18.77-7.22,38.08-7.13,57.46,0,68.37,28.04,124,62.5,124s62.5-55.63,62.5-124-28.04-124-62.5-124Zm15.5,196.85c-12.34,0-22-32-22-72.85s9.66-72.85,22-72.85,22,32,22,72.85-9.66,72.85-22,72.85Z"/>
  <g>
    <path class="cls-6" d="M453.67,217.21l-9-94s-18-51,9-47,11,43,11,43l15,98h-26Z"/>
    <rect class="cls-2" x="227.59" y="1.05" width="404.19" height="90.05"/>
    <path class="cls-4" d="M295.54,689.02H28.67s-5.41-79.34,26.6-80.24,28.4,35.16,68.52-14.43,88.81-46.88,95.12-17.58-12.17,52.74,21.64,45.53,82.49,11.72,55,66.72Z"/>
    <path class="cls-9" d="M157.6,689.03l-.9-.04c2.1-52.24,13.04-85.8,21.85-104.75,9.56-20.58,18.78-28.92,18.87-29l.6,.67c-.09,.08-9.2,8.33-18.68,28.77-8.76,18.88-19.64,52.3-21.73,104.34Z"/>
    <path class="cls-9" d="M254.18,689.14l-.87-.25c10.42-35.77,34.96-58.36,35.21-58.58l.61,.67c-.24,.22-24.6,22.65-34.95,58.17Z"/>
    <path class="cls-9" d="M70.7,689.08l-.89-.12c3.54-25.5-2.85-45.29-8.83-57.39-6.48-13.11-13.86-20.27-13.94-20.34l.62-.65c.08,.07,7.58,7.34,14.12,20.59,6.04,12.22,12.48,32.19,8.92,57.92Z"/>
    <path class="cls-8" d="M333.28,625.25c-15.96-20.61-47.74-24.77-70.52-19.91-11.2,2.39-18.01,2.12-21.42-.85-4.08-3.56-3.51-11.41-2.78-21.36,.68-9.29,1.52-20.86-1.13-33.16-2.8-13-12.37-22.36-26.25-25.67-21.48-5.12-58.85,4.09-93.48,46.9-31.98,39.52-40.77,34.3-54.08,26.4-7.06-4.19-15.82-9.41-29.75-9.01-6.57,.19-12.33,2.95-17.11,8.21C-4.61,620.34-.39,686.3-.2,689.1l.08,1.12H331.76l.33-.66c16.53-33.06,9.77-53.22,1.19-64.31Zm-3.01,62.56H2.15c-.47-8.92-2.81-68.24,16.4-89.39,4.32-4.76,9.5-7.25,15.39-7.42,13.18-.37,21.3,4.44,28.45,8.68,13.87,8.23,23.9,14.17,57.18-26.96,33.93-41.94,70.26-51.03,91.05-46.07,12.94,3.08,21.86,11.77,24.45,23.82,2.58,11.97,1.75,23.35,1.08,32.49-.77,10.61-1.39,19,3.61,23.35,4.08,3.56,11.33,3.99,23.5,1.39,22.77-4.86,53.47,.12,68.11,19.03,11.6,14.98,11.21,36.09-1.1,61.08Z"/>
    <path class="cls-4" d="M1046.54,689.02h-266.87s-5.41-79.34,26.6-80.24,28.4,35.16,68.52-14.43,88.81-46.88,95.12-17.58-12.17,52.74,21.64,45.53,82.49,11.72,55,66.72Z"/>
    <path class="cls-9" d="M908.6,689.03l-.9-.04c2.1-52.24,13.04-85.8,21.85-104.75,9.56-20.58,18.78-28.92,18.87-29l.6,.67c-.09,.08-9.2,8.33-18.68,28.77-8.76,18.88-19.64,52.3-21.73,104.34Z"/>
    <path class="cls-9" d="M1005.18,689.14l-.87-.25c10.42-35.77,34.96-58.36,35.21-58.58l.61,.67c-.24,.22-24.6,22.65-34.95,58.17Z"/>
    <path class="cls-9" d="M821.7,689.08l-.89-.12c3.54-25.5-2.85-45.29-8.83-57.39-6.48-13.11-13.86-20.27-13.94-20.34l.62-.65c.08,.07,7.58,7.34,14.12,20.59,6.04,12.22,12.48,32.19,8.92,57.92Z"/>
    <path class="cls-8" d="M1084.28,625.25c-15.96-20.61-47.74-24.77-70.52-19.91-11.2,2.39-18.01,2.12-21.42-.85-4.08-3.56-3.51-11.41-2.78-21.36,.68-9.29,1.52-20.86-1.13-33.16-2.8-13-12.37-22.36-26.25-25.67-21.48-5.12-58.85,4.09-93.48,46.9-31.98,39.52-40.77,34.3-54.08,26.4-7.06-4.19-15.82-9.41-29.75-9.01-6.57,.19-12.33,2.95-17.11,8.21-21.37,23.54-17.14,89.5-16.95,92.3l.08,1.12h331.87l.33-.66c16.53-33.06,9.77-53.22,1.19-64.31Zm-3.01,62.56h-328.12c-.47-8.92-2.81-68.24,16.4-89.39,4.32-4.76,9.5-7.25,15.39-7.42,13.18-.37,21.3,4.44,28.45,8.68,13.87,8.23,23.9,14.17,57.18-26.96,33.93-41.94,70.26-51.03,91.05-46.07,12.94,3.08,21.86,11.77,24.45,23.82,2.58,11.97,1.75,23.35,1.08,32.49-.77,10.61-1.39,19,3.61,23.35,4.08,3.56,11.33,3.99,23.5,1.39,22.77-4.86,53.47,.12,68.11,19.03,11.6,14.98,11.21,36.09-1.1,61.08Z"/>
    <path class="cls-3" d="M575.9,556.53c-.69-4.94-1.53-9.76-2.52-14.44-.04-.21-.08-.42-.12-.62-.44-2.03-.9-4.03-1.38-6.01-3.49-14.24-8.31-27-14.15-37.67-.62-1.14-1.25-2.26-1.9-3.35-3.91-6.61-8.22-12.31-12.86-16.95-.07-.08-.14-.15-.22-.22-1.38-1.38-2.8-2.66-4.24-3.83-7.65-6.26-16.04-9.72-24.84-9.72-7.52,0-14.74,2.53-21.46,7.17-3.95,2.72-7.72,6.18-11.26,10.28-4.73,5.46-9.07,12.06-12.92,19.61-3.66,7.16-6.87,15.16-9.57,23.85-.79,2.53-1.53,5.12-2.22,7.76-.01,.03-.02,.07-.03,.1-.83,3.28-1.6,6.58-2.27,9.89-.68,3.21-1.28,6.44-1.8,9.68-.46,2.79-.86,5.59-1.21,8.4-1.22,9.69-1.81,19.47-1.76,29.26,0,25.83,4,49.87,10.85,69.88,1.26,3.68,2.62,7.22,4.06,10.61,1.42,3.33,2.92,6.51,4.5,9.53,5.31,10.14,11.5,18.51,18.33,24.61,8.15,7.3,17.22,11.37,26.76,11.37,35.57,0,64.5-56.52,64.5-126,0-11.48-.79-22.61-2.27-33.19Zm-62.23,157.19c-9.49,0-18.5-4.22-26.56-11.77-5.98-5.59-11.44-13.01-16.21-21.89-1.55-2.9-3.04-5.96-4.43-9.16-2.18-4.97-4.16-10.29-5.91-15.9-5.95-18.97-9.39-41.34-9.39-65.28-.06-12.07,.85-24.1,2.71-36,.07-.49,.15-.98,.24-1.46,.48-2.99,1.02-5.97,1.63-8.93,.07-.35,.14-.71,.22-1.06,.7-3.35,1.48-6.69,2.33-10.01,.66-2.51,1.37-4.97,2.12-7.38,3.02-9.73,6.7-18.58,10.92-26.3,3.53-6.47,7.44-12.14,11.66-16.87,2.9-3.27,5.96-6.08,9.13-8.4,6.71-4.91,13.97-7.59,21.54-7.59s15.23,2.84,22.11,8.02c1.29,.96,2.55,2.01,3.79,3.14,1.34,1.22,2.65,2.52,3.93,3.91,4.43,4.79,8.53,10.61,12.23,17.29,.64,1.17,1.28,2.36,1.9,3.58,4.98,9.79,9.14,21.22,12.24,33.85,.47,1.87,.9,3.77,1.32,5.7,.07,.33,.14,.66,.21,1,.99,4.71,1.83,9.56,2.52,14.54,1.47,10.5,2.25,21.56,2.25,32.97,0,68.37-28.04,124-62.5,124Z"/>
    <path class="cls-3" d="M549.26,559.49c-.76-5.69-1.74-10.96-2.9-15.73-.5-2.1-1.05-4.09-1.62-5.97-.17-.56-.34-1.11-.52-1.64-3.9-12.02-9.17-19.28-15.05-19.28s-11.36,7.56-15.29,20.03c-.25,.78-.5,1.59-.74,2.42-.59,2.08-1.15,4.29-1.67,6.6-.83,3.7-1.55,7.67-2.16,11.89-.11,.78-.22,1.57-.32,2.37-1.17,8.98-1.82,18.96-1.82,29.54,0,2.97,.05,5.9,.15,8.76,1.27,36.57,10.41,64.09,21.85,64.09,12.34,0,22-32,22-72.85,0-10.85-.68-21.07-1.91-30.23Zm-20.09,101.08c-10.84,0-20-32.45-20-70.85,0-11.31,.79-22.1,2.2-31.7,.62-4.34,1.38-8.44,2.24-12.23,.53-2.31,1.09-4.51,1.69-6.58,.23-.81,.47-1.59,.72-2.36,3.54-11.13,8.17-17.98,13.15-17.98s9.42,6.58,12.95,17.33c.17,.52,.34,1.05,.5,1.6,.59,1.91,1.14,3.95,1.67,6.09,1.16,4.79,2.15,10.1,2.92,15.82,1.26,9.17,1.96,19.36,1.96,30.01,0,38.4-9.16,70.85-20,70.85Z"/>
    <ellipse class="cls-8" cx="531.67" cy="589.71" rx="8.5" ry="16.73"/>
    <polygon class="cls-3" points="513.17 362.71 650.17 362.21 650.17 416.19 513.17 421.71 513.17 362.71"/>
    <polygon class="cls-3" points="396.16 545.77 394.17 545.66 400.22 435.71 524.17 435.71 524.17 437.71 402.11 437.71 396.16 545.77"/>
    <polygon class="cls-3" points="396.38 721.74 395.96 723.7 364.67 718.34 352.91 716.32 340.08 714.12 325.96 711.7 326.29 710.1 326.38 709.74 352.91 714.29 390.68 720.76 396.38 721.74"/>
    <rect class="cls-3" x="451.67" y="708.57" width="2" height="85.29" transform="translate(-333.17 1140.7) rotate(-85.29)"/>
    <path class="cls-3" d="M607.41,545.88c-.75,2.41-1.46,4.87-2.12,7.38l-2.09,.23-15.05,1.67-12.26,1.37-1.98,.22-24.66,2.74-2.05,.22h0s-9.04,1.01-9.04,1.01l-26.8-2.7-2.06-.21-.5-.05-53.19-5.35-1.12-.11-.38-.04-1.98-.2-43.17-4.35-19.8-1.99,5.01-.26,2.01-.1,13.77-.71,43.98-2.27,1.84-.1h.19s2.99-.16,2.99-.16l54.18-2.8,2.16-.11,27.32-1.41,1.55-.08,.57,.07,9.88,1.28,1.99,.26,14.58,1.88,2.07,.26,3.05,.4,15.12,1.95,14.03,1.81,1.96,.25Z"/>
    <path class="cls-1" d="M573.34,188.02s-21.66-7.74-35.58,23.21-35.58,64.97-35.58,64.97l12.38,3.09s3.09-21.66,10.83-24.75l-3.09,27.85s92.82,32.49,134.59-3.09l-1.55-10.83s6.19,1.55,6.19,10.83l4.64-4.64s-4.64-9.28-18.56-21.66c-9.14-8.12-12.28-23.58-13.36-33.24-.81-8.07-4.04-15.7-9.26-21.9-9.25-10.72-26.11-22.12-51.64-9.83Z"/>
    <polygon class="cls-6" points="383.67 644.21 373.67 678.21 392.67 694.21 406.67 651.21 383.67 644.21"/>
    <path class="cls-6" d="M460.67,669.21l-10,36,35,22s1-41,6-49l-31-9Z"/>
    <path class="cls-1" d="M503.67,477.21l-5,10s-57-26-72,10c-15,36-48,150-48,150l29,12,53-121,121-3,5-67-83,9Z"/>
    <path class="cls-1" d="M545.67,494.21s-82-17-88,24c-6,41,3,119,4,121s-4,39-4,39l36,5s23-109,13-137l67.66-4.19c23.36-1.44,42.44-19.89,43.78-43.26,.51-8.94-1.72-17.06-9.44-21.56-24-14-68-14-68-14l5,31Z"/>
    <path class="cls-1" d="M398.67,686.22s-2,32-5,34c-.5,.33-1.56,.5-2.99,.54-7.06,.23-23.01-2.54-23.01-2.54,0,0-.81,.18-3,.12-2.25-.07-5.96-.4-11.76-1.45-3.48-.63-7.71-1.52-12.82-2.77-2.29-.56-4.76-1.19-7.42-1.9-2.54-.68-4.65-1.39-6.37-2.12-19.71-8.29,10.37-18.88,10.37-18.88,0,0,7.77-5.07,16.24-10.68,6.1-4.05,12.57-8.39,16.76-11.32,2.6-1.82,5-2.15,7.13-1.64,6.04,1.43,9.87,9.64,9.87,9.64-1.38,4.15,4.88,6.86,8.88,8.14,1.79,.57,3.12,.86,3.12,.86Z"/>
    <path class="cls-1" d="M464.67,708.21s-10-14-17-8-32,23-32,23c0,0-42,12-5,23s78,9,79,5-2-33-2-33c0,0-21-1-23-10Z"/>
    <circle class="cls-6" cx="584.67" cy="251.21" r="36"/>
    <path class="cls-6" d="M558.67,267.21s-2,41-12,44-38,36-25,46,88,3,88,3l-7-52s-16-11-3-30l-41-11Z"/>
    <path class="cls-8" d="M557.67,335.21l-7-33-23-9-19,44s-21.5,142.5-15.5,144.5c3.37,1.19,6.94,1.7,10.5,1.5,0,0,32-10,42-5s62,9,62,9c0,0,36-19,34-36s0-112,0-112l-4.5-42.5-39.46,6.17-40.04,32.33Z"/>
    <polygon class="cls-8" points="528.67 298.21 527.67 292.21 499.67 258.21 483.67 201.21 444.67 216.21 472.67 285.21 512.67 336.21 528.67 298.21"/>
    <path class="cls-1" d="M537.37,255.52s12.38-17.02,23.21-20.11,12.38-18.56,12.38-18.56c0,0,27.85,30.94,44.86,32.49s1.55-37.13,1.55-37.13l-30.94-7.74-29.39,3.09-23.21,15.47,1.55,32.49Z"/>
    <polygon class="cls-3" points="653.17 486.75 652.2 445.71 559.14 445.71 556.17 555.74 554.17 555.69 557.19 443.71 654.13 443.71 654.16 444.68 655.16 486.68 653.17 486.75"/>
    <polygon class="cls-3" points="651.17 430.71 649.17 430.71 649.17 354.38 681.45 363.75 680.89 365.67 651.17 357.04 651.17 430.71"/>
    <path class="cls-3" d="M660.66,484.72c-1.87,0-3.72,.16-5.54,.46-.67,.11-1.33,.24-1.99,.39-20.22,4.62-37.6,27.55-47.68,60.06-.8,2.56-1.55,5.19-2.25,7.86-4.76,18.7-7.13,37.93-7.04,57.23,0,69.48,28.93,126,64.5,126s64.5-56.52,64.5-126-28.93-126-64.5-126Zm0,250c-34.46,0-62.5-55.63-62.5-124-.09-19.38,2.3-38.69,7.13-57.46,.66-2.51,1.37-4.97,2.12-7.38,11.01-35.47,30.76-59.16,53.25-59.16,34.46,0,62.5,55.63,62.5,124s-28.04,124-62.5,124Z"/>
    <path class="cls-3" d="M676.16,537.87c-12.34,0-22,32-22,72.85s9.66,72.85,22,72.85,22-32,22-72.85-9.66-72.85-22-72.85Zm0,143.7c-10.84,0-20-32.45-20-70.85s9.16-70.85,20-70.85,20,32.44,20,70.85-9.16,70.85-20,70.85Z"/>
    <ellipse class="cls-8" cx="678.67" cy="610.71" rx="8.5" ry="16.73"/>
    <polygon class="cls-3" points="665.17 352.71 686.17 360.71 682.17 371.71 665.17 364.71 665.17 352.71"/>
    <polygon class="cls-3" points="582.17 438.71 582.17 454.71 641.75 454.71 641.75 439.78 582.17 438.71"/>
    <polygon class="cls-3" points="429.17 430.71 429.17 446.71 488.75 446.71 488.75 431.78 429.17 430.71"/>
    <path class="cls-3" d="M225.2-.21V92.1h407.62V-.21H225.2Zm2.4,2.4h402.83V89.71H227.59V2.19Z"/>
    <rect class="cls-4" x="257.56" y="30.96" width="45.56" height="45.56"/>
    <path class="cls-3" d="M249.18,22.57v47.95h47.95V22.57h-47.95Zm45.55,45.56h-43.16V24.97h43.16v43.16Z"/>
    <rect class="cls-3" x="372.66" y="32.16" width="213.4" height="2.4"/>
    <rect class="cls-3" x="372.66" y="48.94" width="213.4" height="2.4"/>
    <rect class="cls-3" x="372.66" y="65.73" width="213.4" height="2.4"/>
    <path class="cls-3" d="M538.17,391.89h-.49v-13.32c0-4.26-3.45-7.71-7.71-7.71h-28.21c-4.26,0-7.71,3.45-7.71,7.71h0v73.05c0,4.26,3.45,7.71,7.71,7.71h28.21c4.26,0,7.71-3.45,7.71-7.71h0v-50.26h.49v-9.48Z"/>
    <circle class="cls-5" cx="516.11" cy="393.56" r="4.72"/>
    <path class="cls-6" d="M635.74,439.68l-94.41-1.78s-52.72,12.07-45.67-14.3,43.97-6.03,43.97-6.03l99.07-3.73-2.96,25.83Z"/>
    <path class="cls-8" d="M626.17,303.71l9-7s15-8,18,20,25,121,3,122-78,2-78,2l6-31,46-3-4-103Z"/>
    <polygon class="cls-7" points="629.17 346.71 626.17 403.71 582.17 412.71 622.17 396.71 629.17 346.71"/>
  </g>
</svg>